<svg width="18" height="19" viewBox="0 0 18 19" fill="none" xmlns="http://www.w3.org/2000/svg">
<path d="M9.26813 15.4403C9.10449 15.3364 8.89551 15.3364 8.73187 15.4403L4.14598 18.3539C3.77026 18.5926 3.29338 18.2583 3.3897 17.8237L4.62437 12.2526C4.66311 12.0778 4.60542 11.8956 4.47312 11.775L0.340347 8.00631C0.0188078 7.7131 0.199345 7.17754 0.632775 7.13884L6.02552 6.65724C6.21269 6.64052 6.37468 6.52028 6.44486 6.34597L8.53618 1.15194C8.70435 0.73427 9.29565 0.73427 9.46381 1.15194L11.5551 6.34597C11.6253 6.52028 11.7873 6.64052 11.9745 6.65724L17.3672 7.13884C17.8007 7.17754 17.9812 7.7131 17.6597 8.00631L13.5269 11.775C13.3946 11.8956 13.3369 12.0778 13.3756 12.2526L14.6103 17.8237C14.7066 18.2583 14.2297 18.5926 13.854 18.3539L9.26813 15.4403Z" fill="#FBC122"/>
</svg>
